<?xml version="1.0" encoding="UTF-8" standalone="no"?>
<svg
   viewBox="0 0 128 128"
   version="1.1"
   id="svg26"
   sodipodi:docname="icon.svg"
   inkscape:version="1.1.1 (3bf5ae0d25, 2021-09-20)"
   width="128"
   height="128"
   inkscape:export-filename="C:\Users\User\Downloads\icon-128x128.png"
   inkscape:export-xdpi="96"
   inkscape:export-ydpi="96"
   xmlns:inkscape="http://www.inkscape.org/namespaces/inkscape"
   xmlns:sodipodi="http://sodipodi.sourceforge.net/DTD/sodipodi-0.dtd"
   xmlns:xlink="http://www.w3.org/1999/xlink"
   xmlns="http://www.w3.org/2000/svg"
   xmlns:svg="http://www.w3.org/2000/svg">
  <defs
     id="defs30">
    <linearGradient
       inkscape:collect="always"
       id="linearGradient872">
      <stop
         style="stop-color:#5a296b;stop-opacity:1"
         offset="0"
         id="stop868" />
      <stop
         style="stop-color:#516dff;stop-opacity:0"
         offset="1"
         id="stop870" />
    </linearGradient>
    <linearGradient
       inkscape:collect="always"
       xlink:href="#linearGradient872"
       id="linearGradient2800"
       gradientUnits="userSpaceOnUse"
       x1="0"
       y1="0"
       x2="256.75967"
       y2="258.42389" />
  </defs>
  <sodipodi:namedview
     id="namedview28"
     pagecolor="#ffffff"
     bordercolor="#666666"
     borderopacity="1.0"
     inkscape:pageshadow="2"
     inkscape:pageopacity="0.0"
     inkscape:pagecheckerboard="0"
     showgrid="false"
     inkscape:zoom="4.0000001"
     inkscape:cx="55.124999"
     inkscape:cy="77.124998"
     inkscape:window-width="1920"
     inkscape:window-height="1017"
     inkscape:window-x="-8"
     inkscape:window-y="-8"
     inkscape:window-maximized="1"
     inkscape:current-layer="svg26" />
  <rect
     style="mix-blend-mode:normal;fill:url(#linearGradient2800);fill-opacity:1;stroke:none;stroke-width:12.6539;stroke-linecap:round;stroke-linejoin:round"
     id="rect854"
     width="128"
     height="128"
     x="0"
     y="0"
     ry="0"
     rx="0" />
  <g
     id="g868"
     transform="matrix(0.64431104,0,0,0.64431104,27.345861,22.764094)">
    <path
       d="m 43.345471,88.756229 c 1.569442,1.569434 4.896656,4.457205 7.407758,6.403312 l 4.519993,3.452771 4.582768,-3.452771 c 2.448329,-1.946107 5.775543,-4.771103 7.344983,-6.340537 l 2.762214,-2.887771 H 55.273222 40.583259 Z"
       id="path8-0-5"
       style="fill:#37d892;fill-opacity:1;stroke:#37d892;stroke-width:0.0627778;stroke-opacity:1" />
    <path
       style="fill:#ffffff;fill-opacity:1;stroke:#ffffff;stroke-width:8.45394;stroke-linecap:butt;stroke-linejoin:round;stroke-miterlimit:4;stroke-dasharray:none;stroke-opacity:1"
       d="M 4.3847364,67.599156 H 109.39304 l -6.88977,55.492274 H 11.406571 Z"
       id="path1182-0-0"
       sodipodi:nodetypes="ccccc" />
    <path
       d="M 48.624893,1.6366434 C 36.840982,3.493504 29.413543,7.2072195 21.486185,15.205995 11.20205,25.41872 7.9168335,36.202783 10.702122,49.629304 c 2.49962,11.569659 6.284751,21.13962 12.283834,31.209508 2.14253,3.499468 3.856553,6.49901 3.856553,6.641842 0,0.07141 -2.713867,0.214252 -6.070498,0.214252 -7.213179,0 -10.7840646,1.214101 -11.4268219,3.785138 -0.571344,2.285365 0.6427573,4.642147 2.9281249,5.499161 2.856704,1.142679 87.343782,0.928426 89.486316,-0.214254 2.35678,-1.214102 3.21379,-2.785288 2.64245,-5.070655 -0.71418,-2.785289 -4.14222,-3.99939 -11.498246,-3.99939 -3.356626,0 -6.070498,-0.142827 -6.070498,-0.214252 0,-0.142827 1.642606,-2.999542 3.642299,-6.284753 C 96.046213,72.054442 99.117169,64.698426 101.83104,54.4857 106.25894,37.845391 103.47365,26.418569 92.18966,15.205995 84.190885,7.1358044 77.049121,3.6363357 64.693864,1.5652276 57.552102,0.42254152 56.195162,0.42254152 48.624893,1.6366434 Z M 69.693098,12.420706 c 3.142378,1.071266 5.713415,2.14253 5.713415,2.428204 0,0.28567 -1.428354,0.714174 -3.142381,0.928427 -3.999383,0.571344 -10.069888,3.285211 -13.069429,5.78483 l -2.356782,1.999693 -2.28536,-1.999693 c -3.213796,-2.642451 -8.855792,-5.213486 -12.855177,-5.713413 -1.928278,-0.28567 -3.428048,-0.714174 -3.428048,-0.999844 0,-0.285674 2.499614,-1.356938 5.570577,-2.356782 7.927359,-2.7138721 17.85441,-2.7138721 25.853185,-0.07141 z M 43.697076,26.347149 c 4.285058,2.071113 6.784678,5.427739 7.213184,9.784219 0.428505,4.713564 1.499771,8.529353 3.856553,10.243377 1.642603,1.142681 2.356782,1.285517 3.499463,0.64276 2.356783,-1.285519 3.856553,-5.672651 4.356475,-10.100546 0.571342,-5.213487 2.856709,-8.427282 7.356021,-10.56981 6.213337,-2.856704 13.99786,-1.642603 18.78284,2.928124 2.999541,2.928121 3.99939,6.070498 3.92797,12.35525 -0.07141,9.212877 -4.356475,16.925983 -12.64092,22.853648 -23.567826,16.854568 -58.990982,2.928127 -59.062399,-23.210732 0,-6.070503 0.785597,-8.712955 3.570884,-11.712496 4.427892,-4.713565 12.855177,-6.141915 19.139929,-3.213794 z"
       id="path2-0-4"
       style="fill:#ffffff;fill-opacity:1;stroke:#ffffff;stroke-width:0.0714174;stroke-opacity:1"
       sodipodi:nodetypes="ccccssscccssccccccscccccsccccccccccccccc" />
    <path
       d="m 31.056151,33.346079 c -2.713872,2.713868 -2.785287,5.927662 -0.214252,8.284444 3.713716,3.428046 10.784062,2.21395 12.42667,-2.14253 2.4282,-6.28475 -7.213184,-11.141146 -12.212418,-6.141914 z"
       id="path4-7-6"
       style="fill:#ffffff;fill-opacity:1;stroke:#ffffff;stroke-width:0.0714174;stroke-opacity:1" />
    <path
       d="m 73.121146,32.489067 c -2.571037,1.642603 -3.713718,4.356475 -2.785289,6.856094 1.714023,4.499312 8.712956,5.784831 12.498094,2.285362 2.571035,-2.356782 2.499615,-5.570576 -0.214252,-8.284444 -2.49962,-2.428203 -6.356173,-2.785288 -9.498553,-0.857012 z"
       id="path6-9-8"
       style="fill:#ffffff;fill-opacity:1;stroke:#ffffff;stroke-width:0.0714174;stroke-opacity:1" />
    <path
       style="fill:#ffffff;fill-opacity:1;stroke:#ffffff;stroke-width:0.535632px;stroke-linecap:butt;stroke-linejoin:miter;stroke-opacity:1"
       d="M 37.487392,9.8739519 62.379955,4.0168811 78.120842,9.5078844 82.513642,17.561364 72.62983,21.588098 56.837921,23.56186 31.264256,19.757762 Z"
       id="path7995-2-3" />
    <path
       style="fill:#ffffff;fill-opacity:1;stroke:#ffffff;stroke-width:4.26667;stroke-linecap:round;stroke-linejoin:round;stroke-miterlimit:4;stroke-dasharray:none;stroke-opacity:1"
       d="M 68.425304,9.4114542 C 90.366991,5.2037634 89.089214,8.9386026 102.11725,2.8755245 L 89.327774,19.983382 Z"
       id="path1022"
       sodipodi:nodetypes="cccc" />
    <path
       style="fill:#ffffff;fill-opacity:1;stroke:#ffffff;stroke-width:4.26667;stroke-linecap:round;stroke-linejoin:round;stroke-miterlimit:4;stroke-dasharray:none;stroke-opacity:1"
       d="M 45.352505,9.4114542 C 23.410816,5.2037634 24.688594,8.9386026 11.66056,2.8755245 L 24.450034,19.983382 Z"
       id="path1022-5"
       sodipodi:nodetypes="cccc" />
    <ellipse
       style="fill:#5a296b;fill-opacity:1;stroke:#5a296b;stroke-width:4.00414;stroke-linecap:round;stroke-linejoin:round;stroke-opacity:1"
       id="path2195-1-2"
       cx="56.888905"
       cy="95.345329"
       rx="5.359931"
       ry="5.35993" />
  </g>
</svg>
